<?xml version="1.0" encoding="UTF-8"?>
<svg xmlns="http://www.w3.org/2000/svg" version="1.1" viewBox="0 0 64 64">
  <defs>
    <style>
      .cls-1 {
        fill: #fff;
      }

      .cls-2 {
        fill: #000f3c;
      }

      .cls-3 {
        fill: #dadada;
      }

      .cls-4 {
        fill: #ff001e;
      }
    </style>
  </defs>
  <!-- Generator: Adobe Illustrator 28.7.1, SVG Export Plug-In . SVG Version: 1.2.0 Build 142)  -->
  <g>
    <g id="Capa_1">
      <g>
        <path class="cls-2" d="M63.4,24.9c-1.5,0-5-.5-8-5.6-3.8-6.3-7.7-15.8-18-18,.3.6,1.8,3.8,0,7.1,0,0-1.3-1.4-5-1.4s-5,1.4-5,1.4c-2.1-3.6,0-7.2,0-7.2-10.7,1.9-14.8,11.6-18.5,18.1-3,5-6.6,5.6-8,5.6h-.6c.9,7.9,9.2,9.4,9.2,9.4-3.4,2.9-3.9,7.2-3.9,7.2,1.7-1.4,3.3-1.8,3.3-1.8-7.4,8.6,1.3,15.7,1.3,15.7-1.3-2.8-.3-4.8-.3-4.8.5,7.4,10.3,9.1,10.3,9.1-.7-.9-1.1-2.6-1.1-2.6,4.1,4.5,13.2,5.7,13.2,5.7,0,0,9.1-1.2,13.2-5.7,0,0-.3,1.7-1.1,2.6,0,0,9.7-1.7,10.3-9.1,0,0,1,2-.3,4.8,0,0,8.7-7.2,1.3-15.7,0,0,1.6.5,3.3,1.8,0,0-.4-4.3-3.9-7.2,0,0,8.3-1.6,9.2-9.4h-.6Z"/>
        <path class="cls-1" d="M47.9,33.4c-7.4-6.5-16.2-6.2-16.2-6.2,0,0-8.7-.4-16.2,6.2-7.4,6.5-4.1,13.3-4.1,13.3.5-2.8,1.6-3.6,1.6-3.6,0,5.9,4.5,8.9,4.5,8.9,0-4.6.5-5,.5-5,2.2,6,6,7.2,6,7.2-.1-4.3,1.6-7.2,1.6-7.2.6,8.5,5.9,9.2,5.9,9.2h0s5.4-.7,5.9-9.2c0,0,1.8,2.9,1.6,7.2,0,0,3.7-1.2,6-7.2,0,0,.4.4.5,5,0,0,4.6-3,4.5-8.9,0,0,1.1.9,1.6,3.6,0,0,3.3-6.6-4.1-13.3h.2Z"/>
        <ellipse class="cls-2" cx="31.8" cy="46" rx="5.9" ry="3.1"/>
        <path class="cls-4" d="M45.4,46.9s.4.4.5,5c0,0,4.6-3,4.5-8.9,0,0,1.1.9,1.6,3.6,0,0,3.3-6.6-4.1-13.3-.5-.4-1.1-.9-1.6-1.3,0,0-1,2.9-6,4.2-4.9,1.3-3.1,5-3.1,5,0,0-.5,2.2-2,2.5-1.4.2-3.4,1.4-3.4,1.8,0-.5-2-1.6-3.4-1.8-1.4-.2-2-2.5-2-2.5,0,0,1.8-3.6-3.1-5-4.9-1.3-5.9-4.1-6-4.2-.5.4-1.1.9-1.6,1.3-7.4,6.5-4.1,13.3-4.1,13.3.5-2.8,1.6-3.6,1.6-3.6,0,5.9,4.5,8.9,4.5,8.9,0-4.6.5-5,.5-5,2.2,6,6,7.2,6,7.2-.1-4.3,1.6-7.2,1.6-7.2.6,8.5,5.9,9.2,5.9,9.2h0s5.4-.7,5.9-9.2c0,0,1.8,2.9,1.6,7.2,0,0,3.7-1.2,6-7.2h.2Z"/>
        <path class="cls-2" d="M40.8,35.9c-4.7-1.7-9-.4-9-.4,0,0-4.3-1.3-9,.4-4.7,1.7-7,1.2-7,1.2,0,0,1.1,4.5,5.6,5.6,4.5,1.1,10.5-1.8,10.5-1.8,0,0,6,2.9,10.5,1.8s5.6-5.6,5.6-5.6c0,0-2.2.5-7-1.2h-.2Z"/>
        <path class="cls-2" d="M33.1,30.7s.3.6.9,2.2h6.3s-1-1.2-1.8-1.8c0,0,2.5-.2,4.1.6,0,0-1.8-2.9-4.2-2.9s-3.1,1.7-5.2,1.7h0Z"/>
        <path class="cls-3" d="M46.3,32.2c-.9-.6-1.7-1.2-2.6-1.7.1,1.2,0,3.1-1.9,5.4,3.6-1.4,4.5-3.6,4.5-3.6Z"/>
        <path class="cls-2" d="M30.6,30.7s-.3.6-.9,2.2h-6.3s1-1.2,1.8-1.8c0,0-2.5-.2-4.1.6,0,0,1.8-2.9,4.2-2.9s3.1,1.7,5.2,1.7h0Z"/>
        <path class="cls-4" d="M45.1,38.4s-2.2-.4-3.5-1.6c-1.1-1-2.1-1.3-2.4-1.4-1.8-.4-3.5-.5-4.8-.4-1.5,0-1.9,1.2-1.9,1.2l-.5-.3h0l-.5.3s-.4-1.2-1.9-1.2-3,0-4.8.4c-.3,0-1.3.4-2.4,1.4-1.3,1.2-3.5,1.6-3.5,1.6,0,0,2.8,1.8,6,.2,0,0-.6.9-1.9,1.5,0,0,2.7.1,6-2.1,0,0-.2,1-.6,1.5,0,0,2.1-.6,3.7-1.8,1.6,1.2,3.7,1.8,3.7,1.8-.4-.5-.6-1.5-.6-1.5,3.3,2.2,6,2.1,6,2.1-1.2-.6-1.9-1.5-1.9-1.5,3.2,1.5,6-.2,6-.2Z"/>
        <path class="cls-4" d="M52.4,21.7c-3.9-5.9-4.9-10.8-11.3-14.2,0,0,0,7.6-9.3,7.6s-9.3-7.6-9.3-7.6c-6.4,3.5-7.5,8.3-11.3,14.2s-7.3,6.1-7.3,6.1c3.7,0,7.5-2.4,11.2-9.8,3.3-6.5,6.2-8,6.2-8,1.8,7,10.5,6.7,10.5,6.7,0,0,8.7.2,10.5-6.7,0,0,2.9,1.5,6.2,8,3.7,7.4,7.5,9.8,11.2,9.8,0,0-3.5-.2-7.3-6.1Z"/>
        <path class="cls-3" d="M17.3,32.2c.9-.6,1.7-1.2,2.6-1.7-.1,1.2,0,3.1,1.9,5.4-3.6-1.4-4.5-3.6-4.5-3.6Z"/>
        <path class="cls-2" d="M31.8,35.2c1.2,0,2.4-.3,3.1-1-.2,1.5-1.5,2.6-3.1,2.6s-2.9-1.2-3.1-2.6c.7.5,1.9,1,3.1,1Z"/>
        <path class="cls-4" d="M19.7,25c1.2-.2,2.7-.4,3.4-.3,0,0-2.8,1.2-4.3,3.6,3.7-2.1,8.2-3.3,13.1-3.3s8.2,1,11.7,2.7c-1.4-1.6-5.5-5.5-12.4-6-6.1-.4-10,1.5-11.7,2.7-.3.2-.1.6.2.6Z"/>
      </g>
    </g>
  </g>
</svg>